<mxfile host="app.diagrams.net" modified="2020-09-07T13:26:01.043Z" agent="5.0 (Windows NT 10.0; Win64; x64) AppleWebKit/537.36 (KHTML, like Gecko) Chrome/85.0.4183.83 Safari/537.36" etag="jy4wfEK7P1rSXGoc9saW" version="13.6.6" type="github">
  <diagram id="LG4ljPui2VfAujS3VMB6" name="Page-1">
    <mxGraphModel dx="880" dy="622" grid="1" gridSize="10" guides="1" tooltips="1" connect="1" arrows="1" fold="1" page="1" pageScale="1" pageWidth="827" pageHeight="1169" math="0" shadow="0">
      <root>
        <mxCell id="0" />
        <mxCell id="1" parent="0" />
        <mxCell id="n_l72kH5USurBvNW8vy_-1" value="" style="rounded=0;whiteSpace=wrap;html=1;" vertex="1" parent="1">
          <mxGeometry x="160" y="60" width="420" height="180" as="geometry" />
        </mxCell>
        <mxCell id="n_l72kH5USurBvNW8vy_-2" value="" style="rounded=0;whiteSpace=wrap;html=1;" vertex="1" parent="1">
          <mxGeometry x="170" y="120" width="120" height="60" as="geometry" />
        </mxCell>
        <mxCell id="n_l72kH5USurBvNW8vy_-3" value="" style="rounded=0;whiteSpace=wrap;html=1;" vertex="1" parent="1">
          <mxGeometry x="310" y="120" width="120" height="60" as="geometry" />
        </mxCell>
        <mxCell id="n_l72kH5USurBvNW8vy_-4" value="" style="rounded=0;whiteSpace=wrap;html=1;" vertex="1" parent="1">
          <mxGeometry x="450" y="120" width="120" height="60" as="geometry" />
        </mxCell>
        <mxCell id="n_l72kH5USurBvNW8vy_-5" value="Administrador Datos Vectoriales" style="text;html=1;strokeColor=none;fillColor=none;align=center;verticalAlign=middle;whiteSpace=wrap;rounded=0;" vertex="1" parent="1">
          <mxGeometry x="210" y="140" width="40" height="20" as="geometry" />
        </mxCell>
        <mxCell id="n_l72kH5USurBvNW8vy_-6" value="Administrador&lt;br&gt;Datos RASTER" style="text;html=1;strokeColor=none;fillColor=none;align=center;verticalAlign=middle;whiteSpace=wrap;rounded=0;" vertex="1" parent="1">
          <mxGeometry x="350" y="140" width="40" height="20" as="geometry" />
        </mxCell>
        <mxCell id="n_l72kH5USurBvNW8vy_-7" value="FTP Transferencia&lt;br&gt;InformaciÃ³n" style="text;html=1;strokeColor=none;fillColor=none;align=center;verticalAlign=middle;whiteSpace=wrap;rounded=0;" vertex="1" parent="1">
          <mxGeometry x="480" y="140" width="40" height="20" as="geometry" />
        </mxCell>
        <mxCell id="n_l72kH5USurBvNW8vy_-8" value="Servidor 1" style="text;html=1;strokeColor=none;fillColor=none;align=center;verticalAlign=middle;whiteSpace=wrap;rounded=0;" vertex="1" parent="1">
          <mxGeometry x="230" y="100" width="60" height="20" as="geometry" />
        </mxCell>
        <mxCell id="n_l72kH5USurBvNW8vy_-9" value="Servidor 2" style="text;html=1;strokeColor=none;fillColor=none;align=center;verticalAlign=middle;whiteSpace=wrap;rounded=0;" vertex="1" parent="1">
          <mxGeometry x="370" y="100" width="60" height="20" as="geometry" />
        </mxCell>
        <mxCell id="n_l72kH5USurBvNW8vy_-10" value="Servidor 3" style="text;html=1;strokeColor=none;fillColor=none;align=center;verticalAlign=middle;whiteSpace=wrap;rounded=0;" vertex="1" parent="1">
          <mxGeometry x="510" y="100" width="60" height="20" as="geometry" />
        </mxCell>
        <mxCell id="n_l72kH5USurBvNW8vy_-15" value="" style="endArrow=none;html=1;entryX=0.5;entryY=1;entryDx=0;entryDy=0;exitX=0.5;exitY=1;exitDx=0;exitDy=0;" edge="1" parent="1" source="n_l72kH5USurBvNW8vy_-3" target="n_l72kH5USurBvNW8vy_-2">
          <mxGeometry width="50" height="50" relative="1" as="geometry">
            <mxPoint x="260" y="260" as="sourcePoint" />
            <mxPoint x="310" y="210" as="targetPoint" />
            <Array as="points">
              <mxPoint x="300" y="210" />
            </Array>
          </mxGeometry>
        </mxCell>
        <mxCell id="n_l72kH5USurBvNW8vy_-16" value="" style="endArrow=none;html=1;entryX=0.5;entryY=1;entryDx=0;entryDy=0;exitX=0.5;exitY=1;exitDx=0;exitDy=0;" edge="1" parent="1" source="n_l72kH5USurBvNW8vy_-4" target="n_l72kH5USurBvNW8vy_-3">
          <mxGeometry width="50" height="50" relative="1" as="geometry">
            <mxPoint x="410" y="260" as="sourcePoint" />
            <mxPoint x="460" y="210" as="targetPoint" />
            <Array as="points">
              <mxPoint x="440" y="210" />
            </Array>
          </mxGeometry>
        </mxCell>
        <mxCell id="n_l72kH5USurBvNW8vy_-17" value="INFRAESTRUCTURA VALOR+&lt;br&gt;TERRITORIOS+" style="text;html=1;strokeColor=none;fillColor=none;align=center;verticalAlign=middle;whiteSpace=wrap;rounded=0;" vertex="1" parent="1">
          <mxGeometry x="70" y="140" width="40" height="20" as="geometry" />
        </mxCell>
        <mxCell id="n_l72kH5USurBvNW8vy_-18" value="" style="rounded=0;whiteSpace=wrap;html=1;" vertex="1" parent="1">
          <mxGeometry x="160" y="310" width="420" height="150" as="geometry" />
        </mxCell>
        <mxCell id="n_l72kH5USurBvNW8vy_-22" value="" style="rounded=0;whiteSpace=wrap;html=1;" vertex="1" parent="1">
          <mxGeometry x="260" y="400" width="40" height="40" as="geometry" />
        </mxCell>
        <mxCell id="n_l72kH5USurBvNW8vy_-23" value="" style="rounded=0;whiteSpace=wrap;html=1;" vertex="1" parent="1">
          <mxGeometry x="320" y="400" width="40" height="40" as="geometry" />
        </mxCell>
        <mxCell id="n_l72kH5USurBvNW8vy_-24" value="" style="rounded=0;whiteSpace=wrap;html=1;" vertex="1" parent="1">
          <mxGeometry x="380" y="400" width="40" height="40" as="geometry" />
        </mxCell>
        <mxCell id="n_l72kH5USurBvNW8vy_-25" value="" style="rounded=0;whiteSpace=wrap;html=1;" vertex="1" parent="1">
          <mxGeometry x="440" y="400" width="40" height="40" as="geometry" />
        </mxCell>
        <mxCell id="n_l72kH5USurBvNW8vy_-28" value="PC T1" style="text;html=1;strokeColor=none;fillColor=none;align=center;verticalAlign=middle;whiteSpace=wrap;rounded=0;" vertex="1" parent="1">
          <mxGeometry x="260" y="410" width="40" height="20" as="geometry" />
        </mxCell>
        <mxCell id="n_l72kH5USurBvNW8vy_-29" value="PC T2" style="text;html=1;strokeColor=none;fillColor=none;align=center;verticalAlign=middle;whiteSpace=wrap;rounded=0;" vertex="1" parent="1">
          <mxGeometry x="320" y="410" width="40" height="20" as="geometry" />
        </mxCell>
        <mxCell id="n_l72kH5USurBvNW8vy_-30" value="PC T3" style="text;html=1;strokeColor=none;fillColor=none;align=center;verticalAlign=middle;whiteSpace=wrap;rounded=0;" vertex="1" parent="1">
          <mxGeometry x="380" y="410" width="40" height="20" as="geometry" />
        </mxCell>
        <mxCell id="n_l72kH5USurBvNW8vy_-31" value="PC T4" style="text;html=1;strokeColor=none;fillColor=none;align=center;verticalAlign=middle;whiteSpace=wrap;rounded=0;" vertex="1" parent="1">
          <mxGeometry x="440" y="410" width="40" height="20" as="geometry" />
        </mxCell>
        <mxCell id="n_l72kH5USurBvNW8vy_-35" value="PC&lt;br&gt;ASIG" style="rounded=0;whiteSpace=wrap;html=1;" vertex="1" parent="1">
          <mxGeometry x="340" y="330" width="40" height="40" as="geometry" />
        </mxCell>
        <mxCell id="n_l72kH5USurBvNW8vy_-36" value="INFRAESTRUCTURA MUNICIPAL" style="text;html=1;strokeColor=none;fillColor=none;align=center;verticalAlign=middle;whiteSpace=wrap;rounded=0;" vertex="1" parent="1">
          <mxGeometry x="70" y="375" width="40" height="20" as="geometry" />
        </mxCell>
        <mxCell id="n_l72kH5USurBvNW8vy_-37" value="" style="endArrow=none;html=1;exitX=1;exitY=0.5;exitDx=0;exitDy=0;entryX=0.5;entryY=1;entryDx=0;entryDy=0;" edge="1" parent="1" source="n_l72kH5USurBvNW8vy_-35" target="n_l72kH5USurBvNW8vy_-4">
          <mxGeometry width="50" height="50" relative="1" as="geometry">
            <mxPoint x="350" y="330" as="sourcePoint" />
            <mxPoint x="400" y="280" as="targetPoint" />
            <Array as="points">
              <mxPoint x="510" y="350" />
              <mxPoint x="510" y="280" />
            </Array>
          </mxGeometry>
        </mxCell>
        <mxCell id="n_l72kH5USurBvNW8vy_-38" value="" style="endArrow=none;html=1;entryX=1;entryY=0.5;entryDx=0;entryDy=0;exitX=0;exitY=0.5;exitDx=0;exitDy=0;" edge="1" parent="1" source="n_l72kH5USurBvNW8vy_-23" target="n_l72kH5USurBvNW8vy_-28">
          <mxGeometry width="50" height="50" relative="1" as="geometry">
            <mxPoint x="330" y="540" as="sourcePoint" />
            <mxPoint x="380" y="490" as="targetPoint" />
          </mxGeometry>
        </mxCell>
        <mxCell id="n_l72kH5USurBvNW8vy_-39" value="" style="endArrow=none;html=1;entryX=1;entryY=0.5;entryDx=0;entryDy=0;exitX=0;exitY=0.5;exitDx=0;exitDy=0;" edge="1" parent="1" source="n_l72kH5USurBvNW8vy_-30" target="n_l72kH5USurBvNW8vy_-29">
          <mxGeometry width="50" height="50" relative="1" as="geometry">
            <mxPoint x="320" y="530" as="sourcePoint" />
            <mxPoint x="370" y="480" as="targetPoint" />
          </mxGeometry>
        </mxCell>
        <mxCell id="n_l72kH5USurBvNW8vy_-40" value="" style="endArrow=none;html=1;entryX=1;entryY=0.5;entryDx=0;entryDy=0;exitX=0;exitY=0.5;exitDx=0;exitDy=0;" edge="1" parent="1" source="n_l72kH5USurBvNW8vy_-31" target="n_l72kH5USurBvNW8vy_-30">
          <mxGeometry width="50" height="50" relative="1" as="geometry">
            <mxPoint x="430" y="540" as="sourcePoint" />
            <mxPoint x="480" y="490" as="targetPoint" />
          </mxGeometry>
        </mxCell>
        <mxCell id="n_l72kH5USurBvNW8vy_-41" value="" style="endArrow=none;html=1;entryX=0.5;entryY=0;entryDx=0;entryDy=0;exitX=0.5;exitY=1;exitDx=0;exitDy=0;" edge="1" parent="1" source="n_l72kH5USurBvNW8vy_-35" target="n_l72kH5USurBvNW8vy_-22">
          <mxGeometry width="50" height="50" relative="1" as="geometry">
            <mxPoint x="300" y="540" as="sourcePoint" />
            <mxPoint x="350" y="490" as="targetPoint" />
          </mxGeometry>
        </mxCell>
        <mxCell id="n_l72kH5USurBvNW8vy_-42" value="" style="endArrow=none;html=1;entryX=0.5;entryY=0;entryDx=0;entryDy=0;" edge="1" parent="1" target="n_l72kH5USurBvNW8vy_-23">
          <mxGeometry width="50" height="50" relative="1" as="geometry">
            <mxPoint x="360" y="370" as="sourcePoint" />
            <mxPoint x="380" y="500" as="targetPoint" />
          </mxGeometry>
        </mxCell>
        <mxCell id="n_l72kH5USurBvNW8vy_-43" value="" style="endArrow=none;html=1;entryX=0.5;entryY=0;entryDx=0;entryDy=0;" edge="1" parent="1" target="n_l72kH5USurBvNW8vy_-24">
          <mxGeometry width="50" height="50" relative="1" as="geometry">
            <mxPoint x="360" y="370" as="sourcePoint" />
            <mxPoint x="430" y="490" as="targetPoint" />
          </mxGeometry>
        </mxCell>
        <mxCell id="n_l72kH5USurBvNW8vy_-44" value="" style="endArrow=none;html=1;entryX=0.5;entryY=0;entryDx=0;entryDy=0;" edge="1" parent="1" target="n_l72kH5USurBvNW8vy_-25">
          <mxGeometry width="50" height="50" relative="1" as="geometry">
            <mxPoint x="360" y="370" as="sourcePoint" />
            <mxPoint x="520" y="490" as="targetPoint" />
          </mxGeometry>
        </mxCell>
      </root>
    </mxGraphModel>
  </diagram>
</mxfile>
